# xmcd
#
# Track frame offsets:
#	150
#	18029
#	34246
#	51478
#	69532
#	86394
#	103268
#	120648
#	137117
#	150229
#	165441
#	185698
#	200843
#	217345
#	233772
#	246769
#	260589
#	274796
#	289623
#	314632
#
# Disc length: 4412 seconds
#
# Revision: 0
# Processed by: cddbd v1.5.2PL0 Copyright (c) Steve Scherf et al.
# Submitted via: dBpowerAMP V4.0
#
DISCID=2b113a14
DTITLE=Art Garfunkel - simply the best
DYEAR=1900
DGENRE=
TTITLE0=01 Bright Eyes
TTITLE1=02 Break Away
TTITLE2=03 I Believe
TTITLE3=04 Disney Girls
TTITLE4=05 Miss You Nights
TTITLE5=06 She Moved Through The Fair
TTITLE6=07 Scissors Cut
TTITLE7=08 Since I Don't Have You
TTITLE8=09 Watermark
TTITLE9=10 Wonderful World
TTITLE10=11 When A Man Loves A Woman
TTITLE11=12 Looking For The Right One
TTITLE12=13 I Only Have Eyes For You
TTITLE13=14 Crying In The Rain
TTITLE14=15 Another Lullaby
TTITLE15=16 99 Miles From L.A.
TTITLE16=17 A Heart In New York
TTITLE17=18 Saturday Suit
TTITLE18=19 Why Worry
TTITLE19=20 Crying In My Sleep
EXTD=
EXTT0=
EXTT1=
EXTT2=
EXTT3=
EXTT4=
EXTT5=
EXTT6=
EXTT7=
EXTT8=
EXTT9=
EXTT10=
EXTT11=
EXTT12=
EXTT13=
EXTT14=
EXTT15=
EXTT16=
EXTT17=
EXTT18=
EXTT19=
PLAYORDER=
